<svg width="64" height="64" viewBox="0 0 64 64" fill="none" xmlns="http://www.w3.org/2000/svg">
<rect width="64" height="64" rx="5" fill="white"/>
<path d="M59 0C61.7614 0 64 2.23858 64 5V26.0215C62.8788 25.4018 61.4634 25.1927 59.7549 25.3936L59.7363 25.3262C61.2654 24.5752 62.2562 23.6856 62.708 22.6582C63.1708 21.6115 63.2116 20.3783 62.8301 18.96C62.3755 17.2701 61.366 16.1341 59.8018 15.5518C58.2484 14.9502 55.9326 15.0637 52.8545 15.8916L34.748 20.7617L40.5684 42.3984L59.9189 37.1934C61.6005 36.7411 62.96 36.129 64 35.3613V59C64 61.7614 61.7614 64 59 64H5C2.23858 64 0 61.7614 0 59V40.3984C0.056191 40.6774 0.121839 40.9591 0.198242 41.2432L0.393555 41.9678C1.2905 45.302 3.19978 47.6198 6.12207 48.9209C9.04467 50.222 12.7617 50.3546 17.2725 49.3193L18.3506 53.3262L25.8418 51.3105L24.7646 47.3047C29.2917 45.909 32.4705 43.9213 34.3008 41.3418C36.1269 38.7472 36.5939 35.7901 35.7012 32.4707L35.5059 31.7461C34.6089 28.4116 32.7193 26.0803 29.8379 24.752C26.9675 23.4045 23.2164 23.2643 18.585 24.332L15.5596 13.083L8.06836 15.0986L11.0938 26.3467C6.67213 27.714 3.5276 29.7091 1.66016 32.3311C0.841298 33.4808 0.2881 34.6976 0 35.9814V5C0 2.23858 2.23858 0 5 0H59ZM15.2061 41.4541C13.1652 41.9869 11.519 42.1546 10.2686 41.957C9.01806 41.7594 8.25449 41.1471 7.97852 40.1211L7.69238 39.0576C7.41641 38.0316 7.77029 37.1195 8.75293 36.3213C9.7355 35.5231 11.2428 34.8422 13.2754 34.2793L15.2061 41.4541ZM20.665 32.2432C22.7622 31.6791 24.425 31.5151 25.6533 31.751C26.8928 31.9677 27.6526 32.5966 27.9326 33.6377L28.2188 34.7012C28.4907 35.7121 28.1406 36.6076 27.1689 37.3867C26.2125 38.1616 24.6858 38.8315 22.5889 39.3955L20.665 32.2432ZM55.3379 29.543C56.424 29.2509 57.1898 29.1496 57.6348 29.2402C58.0756 29.3158 58.3531 29.565 58.4668 29.9873C58.5926 30.455 58.4758 30.8344 58.1172 31.125C57.7585 31.4156 57.0512 31.7032 55.9951 31.9873L46.4209 34.5625L45.7637 32.1182L55.3379 29.543ZM52.79 22.1465C53.8159 21.8706 54.5401 21.7646 54.9619 21.8291C55.3834 21.8937 55.6428 22.1069 55.7402 22.4688C55.8498 22.8761 55.7387 23.214 55.4062 23.4814C55.0848 23.7297 54.4032 23.9934 53.3623 24.2734L44.3086 26.709L43.7363 24.5811L52.79 22.1465Z" fill="black"/>
</svg>
