<svg width="23" height="22" viewBox="0 0 23 22" fill="none" xmlns="http://www.w3.org/2000/svg">
<path d="M1.5 5H3.72222M3.72222 5H21.5M3.72222 5V19C3.72222 19.5304 3.95635 20.0391 4.3731 20.4142C4.78984 20.7893 5.35507 21 5.94444 21H17.0556C17.6449 21 18.2102 20.7893 18.6269 20.4142C19.0437 20.0391 19.2778 19.5304 19.2778 19V5M7.05556 5V3C7.05556 2.46957 7.28968 1.96086 7.70643 1.58579C8.12318 1.21071 8.68841 1 9.27778 1H13.7222C14.3116 1 14.8768 1.21071 15.2936 1.58579C15.7103 1.96086 15.9444 2.46957 15.9444 3V5M9.27778 10V16M13.7222 10V16" stroke="#1E1E1E" stroke-width="2" stroke-linecap="round" stroke-linejoin="round"/>
</svg>
