<svg width="296" height="54" viewBox="0 0 296 54" fill="none" xmlns="http://www.w3.org/2000/svg">
<path d="M266.098 32.125V33.7188C266.098 34.9479 266.9 35.8229 268.504 36.3438C270.129 36.8438 272.431 37.0938 275.41 37.0938C278.431 37.0938 280.743 36.8438 282.348 36.3438C283.973 35.8229 284.785 34.9479 284.785 33.7188V32.125C284.785 31.0208 284.004 30.2396 282.441 29.7812C280.9 29.3021 278.587 29.0625 275.504 29.0625C272.4 29.0625 270.056 29.3021 268.473 29.7812C266.889 30.2396 266.098 31.0208 266.098 32.125ZM278.254 17.7188C283.587 17.7188 287.827 19.0104 290.973 21.5938C294.139 24.1771 295.723 27.7396 295.723 32.2812V33.2812C295.723 38.0104 293.858 41.7083 290.129 44.375C286.4 47.0417 281.473 48.375 275.348 48.375C268.764 48.375 263.733 46.9167 260.254 44C256.795 41.0625 255.066 36.2292 255.066 29.5V25.375C255.066 18.625 256.514 13.125 259.41 8.875C262.306 4.60417 265.045 2.61458 267.629 2.90625C272.379 2.65625 275.306 2.33333 276.41 1.9375C277.535 1.52083 278.077 0.875 278.035 0H287.285C287.452 4.79167 286.504 8.38542 284.441 10.7812C282.4 13.1562 278.733 14.4896 273.441 14.7812C272.066 14.6771 270.42 14.9583 268.504 15.625C266.608 16.2917 265.41 18.5833 264.91 22.5H265.004C265.545 21.25 266.775 20.1458 268.691 19.1875C270.608 18.2083 273.795 17.7188 278.254 17.7188Z" fill="black"/>
<path d="M215.394 47.5312V18.3438H226.581V28.625C226.581 29.4167 226.571 30.2708 226.55 31.1875C226.55 32.0833 226.519 32.9167 226.456 33.6875L226.55 33.7188C226.8 32.8646 226.988 32.0938 227.113 31.4062C227.258 30.6979 227.613 29.8125 228.175 28.75L240.863 18.3438H252.581V47.5312H241.425V37.2188C241.425 36.0938 241.404 35.1875 241.363 34.5C241.321 33.7917 241.3 33.0417 241.3 32.25H241.488C241.196 33.0417 240.988 33.7604 240.863 34.4062C240.758 35.0521 240.415 35.9167 239.831 37L227.113 47.5312H215.394ZM233.613 10.0938C235.113 10.0938 236.123 9.48958 236.644 8.28125C237.165 7.05208 237.665 4.73958 238.144 1.34375L247.644 4.9375C246.248 8.3125 244.415 10.8646 242.144 12.5938C239.894 14.3229 237.05 15.1875 233.613 15.1875C230.196 15.1875 227.3 14.2708 224.925 12.4375C222.571 10.6042 220.81 8.09375 219.644 4.90625L229.144 1.59375C229.456 4.57292 229.904 6.73958 230.488 8.09375C231.092 9.42708 232.133 10.0938 233.613 10.0938Z" fill="black"/>
<path d="M173.909 39C173.909 35.7917 175.284 33.2917 178.034 31.5C180.784 29.6875 184.336 28.7812 188.69 28.7812H200.346V28C200.346 27.4583 199.815 27.0417 198.753 26.75C197.711 26.4375 195.95 26.2812 193.471 26.2812C191.055 26.2812 189.273 26.4062 188.128 26.6562C186.982 26.8854 186.409 27.2604 186.409 27.7812V28.5625L176.721 28.5V27.7812C176.721 24.5312 178.325 22 181.534 20.1875C184.742 18.375 189.138 17.4688 194.721 17.4688C200.284 17.4688 204.45 18.3646 207.221 20.1562C209.992 21.9271 211.378 24.7396 211.378 28.5938V41.2188C211.378 42.3646 211.534 43.4583 211.846 44.5C212.18 45.5208 212.638 46.3958 213.221 47.125V47.5312H202.378C201.919 47.0521 201.575 46.5104 201.346 45.9062C201.138 45.2812 200.982 44.6458 200.878 44C199.94 45.0833 198.065 46.0208 195.253 46.8125C192.461 47.5833 189.232 47.9688 185.565 47.9688C181.815 47.9688 178.93 47.2292 176.909 45.75C174.909 44.25 173.909 42 173.909 39ZM184.753 37.8125C184.753 38.3125 185.325 38.6979 186.471 38.9688C187.617 39.2188 189.346 39.3438 191.659 39.3438C193.93 39.3438 195.94 39.0729 197.69 38.5312C199.461 37.9688 200.346 37.2396 200.346 36.3438V35.875H193.471C190.638 35.875 188.471 36.0312 186.971 36.3438C185.492 36.6354 184.753 37.125 184.753 37.8125Z" fill="black"/>
<path d="M134.174 47.5312V18.3438H160.08C164.247 18.3438 167.236 18.9896 169.049 20.2812C170.861 21.5521 171.768 23.3438 171.768 25.6562C171.768 27.5312 171.32 29.0521 170.424 30.2188C169.528 31.3646 167.997 32.1458 165.83 32.5625V32.6562C167.997 33.0104 169.663 33.7604 170.83 34.9062C172.018 36.0521 172.611 37.5729 172.611 39.4688C172.611 41.9479 171.674 43.9167 169.799 45.375C167.945 46.8125 165.257 47.5312 161.736 47.5312H134.174ZM145.049 29.0312H157.33C158.705 29.0312 159.632 28.9375 160.111 28.75C160.59 28.5625 160.83 28.2188 160.83 27.7188C160.83 27.2396 160.58 26.9062 160.08 26.7188C159.58 26.5104 158.663 26.4062 157.33 26.4062H145.049V29.0312ZM145.049 39.4062H157.955C159.33 39.4062 160.288 39.3125 160.83 39.125C161.393 38.9167 161.674 38.5104 161.674 37.9062C161.674 37.3646 161.413 36.9792 160.893 36.75C160.372 36.5208 159.393 36.4167 157.955 36.4375H145.049V39.4062Z" fill="black"/>
<path d="M93.0013 18.3438H104.033V27.1562H119.751V18.3438H130.751V47.5312H119.751V38.5H104.033V47.5312H93.0013V18.3438Z" fill="black"/>
<path d="M50.485 33.3438V32.3125C50.485 27.7708 52.3392 24.1354 56.0475 21.4062C59.7558 18.6562 64.5892 17.2812 70.5475 17.2812C76.5267 17.2812 81.36 18.6562 85.0475 21.4062C88.7558 24.1354 90.61 27.7708 90.61 32.3125V33.3438C90.61 37.9062 88.7558 41.5521 85.0475 44.2812C81.36 47.0104 76.5267 48.375 70.5475 48.375C64.5683 48.375 59.7246 47.0104 56.0163 44.2812C52.3288 41.5521 50.485 37.9062 50.485 33.3438ZM61.5163 31.6562V33.9375C61.5163 35.1042 62.3079 35.9271 63.8913 36.4062C65.4954 36.8646 67.7142 37.0938 70.5475 37.0938C73.3808 37.0938 75.5892 36.8646 77.1725 36.4062C78.7767 35.9271 79.5788 35.0938 79.5788 33.9062V31.6562C79.5788 30.5521 78.7767 29.7812 77.1725 29.3438C75.5683 28.8854 73.36 28.6562 70.5475 28.6562C67.735 28.6562 65.5267 28.8854 63.9225 29.3438C62.3183 29.7812 61.5163 30.5521 61.5163 31.6562Z" fill="black"/>
<path d="M10.9062 33.6562C10.9062 34.8854 11.625 35.8021 13.0625 36.4062C14.5208 36.9896 16.5521 37.2812 19.1562 37.2812V28.5312C16.5521 28.5312 14.5208 28.8333 13.0625 29.4375C11.625 30.0208 10.9062 30.9062 10.9062 32.0938V33.6562ZM38.1875 32.125C38.1875 30.8958 37.4792 29.9688 36.0625 29.3438C34.6458 28.7188 32.6042 28.4062 29.9375 28.4062V37.1875C32.6042 37.1875 34.6458 36.9062 36.0625 36.3438C37.4792 35.7604 38.1875 34.8854 38.1875 33.7188V32.125ZM19.0938 48.375C13.0104 48.1458 8.30208 46.7188 4.96875 44.0938C1.65625 41.4479 0 37.875 0 33.375V32.375C0 27.8958 1.66667 24.3229 5 21.6562C8.33333 18.9896 13.0312 17.5417 19.0938 17.3125V1.4375H30V17.3125C36.2083 17.5417 40.9479 18.9792 44.2188 21.625C47.4896 24.2708 49.125 27.8542 49.125 32.375V33.375C49.125 37.8542 47.4792 41.4167 44.1875 44.0625C40.9167 46.7083 36.1875 48.1458 30 48.375V53.9375H19.0938V48.375Z" fill="black"/>
</svg>
